<?xml version="1.0" encoding="utf-8"?>
<svg width="1024px" height="512px" viewBox="0 0 1024 512" version="1.1" xmlns:xlink="http://www.w3.org/1999/xlink" xmlns="http://www.w3.org/2000/svg">
  <defs>
    <path d="M700 0L0 0L0 400L700 400L700 0L700 0L700 0L700 0Z" id="path_1" />
    <rect width="1024" height="512" id="artboard_1" />
    <clipPath id="clip_1">
      <use xlink:href="#artboard_1" clip-rule="evenodd" />
    </clipPath>
    <clipPath id="mask_1">
      <use xlink:href="#path_1" />
    </clipPath>
  </defs>
  <g id="Artboard" clip-path="url(#clip_1)">
    <use xlink:href="#artboard_1" stroke="none" fill="#202025" />
    <g stroke="#A0E0A0" stroke-width="10" id="-------.-.-...-." fill="#A0E0A0" transform="translate(167 186)" artboard="d70a6e4c-8281-4b14-b989-c01c3481cc9b">
      <path d="M6.01172 44.7672L6.01172 53.6265L37.1953 53.6265L37.1953 44.7672L6.01172 44.7672ZM49.2117 44.7672L49.2117 53.6265L80.3953 53.6265L80.3953 44.7672L49.2117 44.7672ZM135.612 53.6265L135.612 44.7672L166.795 44.7672L166.795 53.6265L135.612 53.6265ZM178.812 44.7672L178.812 53.6265L209.995 53.6265L209.995 44.7672L178.812 44.7672ZM222.012 53.6265L222.012 44.7672L253.195 44.7672L253.195 53.6265L222.012 53.6265ZM351.612 53.6265L351.612 44.7672L382.795 44.7672L382.795 53.6265L351.612 53.6265ZM317.043 60.9214Q315.97 62.732 315.97 64.9293Q315.97 67.0914 317.043 68.9371Q318.133 70.7652 319.961 71.855Q321.806 72.9625 324.004 72.9625Q326.236 72.9625 328.047 71.855Q329.875 70.7652 330.947 68.9371Q332.037 67.0914 332.037 64.9293Q332.037 62.732 330.947 60.9214Q329.875 59.0933 328.047 58.0035Q326.236 56.8961 324.004 56.8961Q321.806 56.8961 319.961 58.0035Q318.133 59.0933 317.043 60.9214ZM403.443 60.9214Q402.37 62.732 402.37 64.9293Q402.37 67.0914 403.443 68.9371Q404.533 70.7652 406.361 71.855Q408.206 72.9625 410.404 72.9625Q412.636 72.9625 414.447 71.855Q416.275 70.7652 417.347 68.9371Q418.437 67.0914 418.437 64.9293Q418.437 62.732 417.347 60.9214Q416.275 59.0933 414.447 58.0035Q412.636 56.8961 410.404 56.8961Q408.206 56.8961 406.361 58.0035Q404.533 59.0933 403.443 60.9214ZM488.77 64.9293Q488.77 62.732 489.843 60.9214Q490.933 59.0933 492.761 58.0035Q494.606 56.8961 496.804 56.8961Q499.036 56.8961 500.847 58.0035Q502.675 59.0933 503.747 60.9214Q504.837 62.732 504.837 64.9293Q504.837 67.0914 503.747 68.9371Q502.675 70.7652 500.847 71.855Q499.036 72.9625 496.804 72.9625Q494.606 72.9625 492.761 71.855Q490.933 70.7652 489.843 68.9371Q488.77 67.0914 488.77 64.9293ZM533.043 60.9214Q531.97 62.732 531.97 64.9293Q531.97 67.0914 533.043 68.9371Q534.133 70.7652 535.961 71.855Q537.806 72.9625 540.004 72.9625Q542.236 72.9625 544.047 71.855Q545.875 70.7652 546.947 68.9371Q548.037 67.0914 548.037 64.9293Q548.037 62.732 546.947 60.9214Q545.875 59.0933 544.047 58.0035Q542.236 56.8961 540.004 56.8961Q537.806 56.8961 535.961 58.0035Q534.133 59.0933 533.043 60.9214ZM575.17 64.9293Q575.17 62.732 576.243 60.9214Q577.333 59.0933 579.161 58.0035Q581.006 56.8961 583.204 56.8961Q585.436 56.8961 587.247 58.0035Q589.075 59.0933 590.147 60.9214Q591.237 62.732 591.237 64.9293Q591.237 67.0914 590.147 68.9371Q589.075 70.7652 587.247 71.855Q585.436 72.9625 583.204 72.9625Q581.006 72.9625 579.161 71.855Q577.333 70.7652 576.243 68.9371Q575.17 67.0914 575.17 64.9293ZM662.643 60.9214Q661.57 62.732 661.57 64.9293Q661.57 67.0914 662.643 68.9371Q663.733 70.7652 665.561 71.855Q667.406 72.9625 669.604 72.9625Q671.836 72.9625 673.647 71.855Q675.475 70.7652 676.547 68.9371Q677.637 67.0914 677.637 64.9293Q677.637 62.732 676.547 60.9214Q675.475 59.0933 673.647 58.0035Q671.836 56.8961 669.604 56.8961Q667.406 56.8961 665.561 58.0035Q663.733 59.0933 662.643 60.9214Z" />
    </g>
    <g id="M" fill="#A0E0A0" transform="translate(200 280)" artboard="4968e7f9-f5cd-44d3-8210-b7ea4a11e91d">
      <path d="M19.5645 10.9138L20.9707 35.866L15.8203 35.866L15.5127 25.1961Q15.4775 23.7019 15.4863 22.533Q15.4951 21.3553 15.5303 20.3269Q15.5742 19.2898 15.6533 18.2351Q15.7324 17.1805 15.8203 15.9412L13.0166 31.6209L8.55176 31.6209L5.52832 15.9412Q5.63379 17.1277 5.71289 18.1824Q5.79199 19.2371 5.82715 20.3006Q5.87109 21.3553 5.88867 22.5769Q5.90625 23.7898 5.87109 25.284L5.68652 35.866L0.632812 35.866L2.03027 10.9138L8.10352 10.9138L10.8721 27.0418L13.5 10.9138L19.5645 10.9138Z" />
    </g>
    <g id="O" fill="#A0E0A0" transform="translate(351.99976 280.00012)" artboard="49fd5aad-596f-48ec-a0eb-5f8364d33e33">
      <path d="M20.7861 23.3767Q20.7861 27.3318 19.6523 30.2762Q18.5186 33.2205 16.2949 34.8553Q14.0801 36.4812 10.8018 36.4812Q7.54102 36.4812 5.30859 34.8904Q3.07617 33.2908 1.94238 30.3553Q0.808594 27.4197 0.808594 23.3767Q0.808594 19.4129 1.94238 16.4773Q3.07617 13.5418 5.30859 11.9158Q7.54102 10.2898 10.8018 10.2898Q14.0801 10.2898 16.2949 11.8719Q18.5186 13.4539 19.6523 16.3894Q20.7861 19.325 20.7861 23.3767ZM14.7393 23.3767Q14.7393 18.7625 13.8164 16.6795Q12.9023 14.5877 10.8018 14.5877Q8.69238 14.5877 7.76953 16.6883Q6.85547 18.7801 6.85547 23.3767Q6.85547 27.9822 7.78711 30.074Q8.72754 32.157 10.8018 32.157Q12.9639 32.157 13.8516 30.0476Q14.7393 27.9295 14.7393 23.3767Z" />
    </g>
    <g id="R" fill="#A0E0A0" transform="translate(524 280)" artboard="670c101b-b66f-42c2-8b59-345aa0db53dc">
      <path d="M20.2148 18.4988Q20.2148 20.2742 19.5469 21.6101Q18.8789 22.9461 17.7451 23.8601Q16.6113 24.7742 15.2139 25.3367L21.7441 35.866L15.0645 35.866L9.66797 26.3299L7.98926 26.3299L7.98926 35.866L2.0918 35.866L2.0918 10.9138L9.93164 10.9138Q15.0293 10.9138 17.6221 12.7683Q20.2148 14.6228 20.2148 18.4988ZM14.1328 18.4988Q14.1328 16.6971 13.0781 15.8797Q12.0234 15.0623 9.95801 15.0623L7.98926 15.0623L7.98926 22.2781L10.1865 22.2781Q12.1113 22.2781 13.1221 21.3816Q14.1328 20.4763 14.1328 18.4988Z" />
    </g>
    <g id="S" fill="#A0E0A0" transform="translate(698 279.99988)" artboard="ff9240b3-4a85-4ed6-9fc5-2ce9e60c97ec">
      <path d="M20.4521 28.5799Q20.4521 30.9002 19.2305 32.6844Q18.0176 34.4597 15.75 35.4705Q13.4824 36.4812 10.292 36.4812Q6.76758 36.4812 4.37695 35.4441Q1.99512 34.407 0.430664 32.8777L3.41895 29.5642Q4.80762 30.7683 6.47754 31.4275Q8.15625 32.0867 10.1514 32.0867Q11.3906 32.0867 12.3223 31.7263Q13.2627 31.366 13.7812 30.6805Q14.3086 29.9949 14.3086 29.0281Q14.3086 28.1053 13.8955 27.4812Q13.4824 26.8484 12.498 26.3474Q11.5225 25.8377 9.77344 25.3191Q6.85547 24.4138 5.08008 23.3416Q3.31348 22.2605 2.51367 20.8367Q1.71387 19.4129 1.71387 17.5232Q1.71387 15.2381 2.97949 13.6209Q4.24512 11.9949 6.38965 11.1424Q8.53418 10.2898 11.1094 10.2898Q14.001 10.2898 16.2158 11.1248Q18.4307 11.9597 20.0479 13.5066L17.2617 16.7146Q16.0049 15.6512 14.5459 15.1414Q13.0869 14.6228 11.5752 14.6228Q10.459 14.6228 9.60645 14.9041Q8.7627 15.1853 8.29688 15.7303Q7.83105 16.2664 7.83105 17.075Q7.83105 17.866 8.2793 18.4109Q8.72754 18.9471 9.84375 19.4217Q10.96 19.8963 12.9463 20.5291Q15.3018 21.2498 16.9805 22.2517Q18.668 23.2449 19.5557 24.7566Q20.4521 26.2683 20.4521 28.5799Z" />
    </g>
    <g id="E" fill="#A0E0A0" transform="translate(826 280)" artboard="f5432032-7614-4f29-b804-bf6f576bca76">
      <path d="M9.25488 15.1326L9.25488 21.1267L17.8945 21.1267L17.8945 25.2664L9.25488 25.2664L9.25488 31.6385L19.6699 31.6385L19.6699 35.866L3.34863 35.866L3.34863 10.9138L19.6523 10.9138L19.0635 15.1326L9.25488 15.1326Z" />
    </g>
    <g id="terrain" transform="translate(512 -120)" artboard="722b2d11-570e-4369-8017-baa4e2c7c3f9">
      <g id="terrain">
        <g id="terrain#1">
          <g id="terrain#2">
            <g id="Mask-Group">
              <path d="M700 0L0 0L0 400L700 400L700 0L700 0L700 0L700 0Z" id="artboard_1" fill="none" fill-rule="evenodd" stroke="none" />
              <g id="Mask-Group#1">
                <path d="M700 0L0 0L0 400L700 400L700 0L700 0L700 0L700 0Z" id="path_1#1" fill="none" fill-rule="evenodd" stroke="none" />
                <g id="Mask-Group#2">
                  <path d="M700 0L0 0L0 400L700 400L700 0L700 0L700 0L700 0Z" id="path_1#2" fill="none" fill-rule="evenodd" stroke="none" />
                  <g id="Mask-Group">
                    <path d="M700 0L0 0L0 400L700 400L700 0L700 0L700 0L700 0Z" id="path_1" fill="none" fill-rule="evenodd" stroke="none" />
                    <g clip-path="url(#mask_1)">
                      <g id="Group" transform="translate(0 -76.27665)">
                        <g id="Group">
                          <g id="Group#1">
                            <g id="Full-HD-3">
                              <path d="M700 76.2767L0 76.2767L0 476.277L700 476.277L700 76.2767L700 76.2767L700 76.2767L700 76.2767Z" id="artboard_1#1" fill="#202025" fill-opacity="0" fill-rule="evenodd" stroke="none" />
                              <path d="M813.708 444.779C678.53 388.304 765.089 312.281 629.048 348.135C493.008 383.99 556.699 414.534 459.921 401.635C363.143 388.736 207.659 290.708 143.238 330.877C78.819 371.046 43.277 329.107 37.102 304.99C30.928 280.874 133.956 178.101 272.316 179.871C410.676 181.641 352.626 95.6937 366.729 56.4767" id="Vector-4" fill="none" fill-rule="evenodd" stroke="#A0E0A0" stroke-width="1" />
                              <path d="M220.457 267.527C256.511 280.223 358.812 281.786 395.659 307.166C432.506 332.546 520.325 318.57 558.969 307.166C597.613 295.761 615.668 225.499 558.969 223.925C502.27 222.351 438.088 261.174 395.659 251.672C353.23 242.17 330.378 233.163 286.257 235.817C242.136 238.471 184.403 254.831 220.457 267.527L220.457 267.527L220.457 267.527L220.457 267.527L220.457 267.527Z" id="Vector-5" fill="none" fill-rule="evenodd" stroke="#A0E0A0" stroke-width="1" />
                              <path d="M765.89 213.998C710.975 211.069 661.895 265.8 643.36 245.062C624.824 224.323 665.209 191.729 588.134 195.877C511.06 200.024 431.192 230.387 424.185 195.877C417.178 161.367 424.979 128.842 443.168 93.1927C461.358 57.5437 500.12 0 500.12 0" id="Vector-5#1" fill="none" fill-rule="evenodd" stroke="#A0E0A0" stroke-width="1" />
                              <path d="M767.616 158.299C697.117 194.384 712.533 222.959 677.875 176.42C643.218 129.881 543.482 177.425 497.531 185.048C451.579 192.672 444.96 171.592 462.152 144.492C479.344 117.393 503.824 99.2127 497.531 58.2027" id="Vector-5#2" fill="none" fill-rule="evenodd" stroke="#A0E0A0" stroke-width="1" />
                              <path d="M748.632 296.362C632.701 279.754 719.335 286.399 582.957 326.563C446.579 366.727 375.407 350.178 343.073 326.563C310.739 302.949 171.384 280.041 135.979 296.362C100.573 312.682 138.374 218.997 242.114 213.524C345.855 208.051 401.273 247.479 397.435 190.226C393.597 132.972 422.535 43.6637 444.031 39.2193" id="Vector-4#1" fill="none" fill-rule="evenodd" stroke="#A0E0A0" stroke-width="1" />
                            </g>
                          </g>
                        </g>
                      </g>
                    </g>
                  </g>
                </g>
              </g>
            </g>
          </g>
        </g>
      </g>
    </g>
    <g id="terrain-2" transform="matrix(-1 0 0 -1 517 633)" artboard="39778f0c-83c2-4b5b-bd47-a7a8f77b0445">
      <g id="terrain">
        <g id="terrain#1">
          <g id="terrain#2">
            <g id="Mask-Group">
              <path d="M700 0L0 0L0 400L700 400L700 0L700 0L700 0L700 0Z" id="artboard_1" fill="none" fill-rule="evenodd" stroke="none" />
              <g id="Mask-Group#1">
                <path d="M700 0L0 0L0 400L700 400L700 0L700 0L700 0L700 0Z" id="path_1#1" fill="none" fill-rule="evenodd" stroke="none" />
                <g id="Mask-Group#2">
                  <path d="M700 0L0 0L0 400L700 400L700 0L700 0L700 0L700 0Z" id="path_1#2" fill="none" fill-rule="evenodd" stroke="none" />
                  <g id="Mask-Group">
                    <path d="M700 0L0 0L0 400L700 400L700 0L700 0L700 0L700 0Z" id="path_1" fill="none" fill-rule="evenodd" stroke="none" />
                    <g clip-path="url(#mask_1)">
                      <g id="Group" transform="translate(0 -76.27665)">
                        <g id="Group">
                          <g id="Group#1">
                            <g id="Full-HD-3">
                              <path d="M700 76.2767L0 76.2767L0 476.277L700 476.277L700 76.2767L700 76.2767L700 76.2767L700 76.2767Z" id="artboard_1#1" fill="#202025" fill-opacity="0" fill-rule="evenodd" stroke="none" />
                              <path d="M813.708 444.779C678.53 388.304 765.089 312.281 629.048 348.135C493.008 383.99 556.699 414.534 459.921 401.635C363.143 388.736 207.659 290.708 143.238 330.877C78.819 371.046 43.277 329.107 37.102 304.99C30.928 280.874 133.956 178.101 272.316 179.871C410.676 181.641 352.626 95.6937 366.729 56.4767" id="Vector-4" fill="none" fill-rule="evenodd" stroke="#A0E0A0" stroke-width="1" />
                              <path d="M220.457 267.527C256.511 280.223 358.812 281.786 395.659 307.166C432.506 332.546 520.325 318.57 558.969 307.166C597.613 295.761 615.668 225.499 558.969 223.925C502.27 222.351 438.088 261.174 395.659 251.672C353.23 242.17 330.378 233.163 286.257 235.817C242.136 238.471 184.403 254.831 220.457 267.527L220.457 267.527L220.457 267.527L220.457 267.527L220.457 267.527Z" id="Vector-5" fill="none" fill-rule="evenodd" stroke="#A0E0A0" stroke-width="1" />
                              <path d="M765.89 213.998C710.975 211.069 661.895 265.8 643.36 245.062C624.824 224.323 665.209 191.729 588.134 195.877C511.06 200.024 431.192 230.387 424.185 195.877C417.178 161.367 424.979 128.842 443.168 93.1927C461.358 57.5437 500.12 0 500.12 0" id="Vector-5#1" fill="none" fill-rule="evenodd" stroke="#A0E0A0" stroke-width="1" />
                              <path d="M767.616 158.299C697.117 194.384 712.533 222.959 677.875 176.42C643.218 129.881 543.482 177.425 497.531 185.048C451.579 192.672 444.96 171.592 462.152 144.492C479.344 117.393 503.824 99.2127 497.531 58.2027" id="Vector-5#2" fill="none" fill-rule="evenodd" stroke="#A0E0A0" stroke-width="1" />
                              <path d="M748.632 296.362C632.701 279.754 719.335 286.399 582.957 326.563C446.579 366.727 375.407 350.178 343.073 326.563C310.739 302.949 171.384 280.041 135.979 296.362C100.573 312.682 138.374 218.997 242.114 213.524C345.855 208.051 401.273 247.479 397.435 190.226C393.597 132.972 422.535 43.6637 444.031 39.2193" id="Vector-4#1" fill="none" fill-rule="evenodd" stroke="#A0E0A0" stroke-width="1" />
                            </g>
                          </g>
                        </g>
                      </g>
                    </g>
                  </g>
                </g>
              </g>
            </g>
          </g>
        </g>
      </g>
    </g>
  </g>
</svg>